<?xml version="1.0" encoding="utf-8"?>
<!-- Generator: Adobe Illustrator 22.1.0, SVG Export Plug-In . SVG Version: 6.00 Build 0)  -->
<svg version="1.1" id="Слой_1" xmlns="http://www.w3.org/2000/svg" xmlns:xlink="http://www.w3.org/1999/xlink" x="0px" y="0px"
	 viewBox="0 0 506.2 697" style="enable-background:new 0 0 506.2 697;" xml:space="preserve">
<style type="text/css">
	.st0{fill:url(#SVGID_1_);}
	.st1{fill-rule:evenodd;clip-rule:evenodd;fill:url(#SVGID_2_);}
	.st2{fill-rule:evenodd;clip-rule:evenodd;fill:url(#SVGID_3_);}
	.st3{fill:#F3F3F8;}
	.st4{clip-path:url(#SVGID_5_);}
	.st5{fill-rule:evenodd;clip-rule:evenodd;fill:#FFFFFF;}
	.st6{fill-rule:evenodd;clip-rule:evenodd;fill:#F06410;}
</style>
<g>
	<path class="st6" d="M253.7,0c-126.5,58.7-126.7,235.1-58.8,350.2c41.4,70.3,94.3,93.5,147.3,145.4c64.5,63.1,85,160.4-2,189.9
		c91.4-101.4-48.4-198.6-113.7-222.8c62.8,46.7,99.1,96.3,111.4,163.7c0,0-73.8,36.3-160.1-3.7c0,0,31.7,63.9,144.3,67.6
		c-172.4,33-339.5-52.8-320.6-314.8c-3.3,102,129.9,217.5,244.2,202.4C81.8,548.4-62,371.2,64.1,154.5
		c-35.5,153.4,63.8,296.2,121.8,302.7C87.3,375.7-1.4,39.4,253.7,0z"/>
	<path class="st6" d="M377.7,309.1c-69.2,24.7-93,124.9-41.2,156.1c-35.3-57.6,13.1-130.5,80.2-132.5c-30.4,9.5-50.8,35.6-58.5,65.4
		c-24.2,93.4,123.6,119.6,48,252.4c111.8-79.8,20.5-150.5-1.4-217.6l0,0l0,0c-0.2-0.8-0.4-1.5-0.6-2.3v0.4
		c-9.6-31.3,8.9-53.5,40.4-52.5c22.2,0.7,44,16.4,53.2,39.2c21.3-45.8-2-88.8-26.9-131.5c-32.7-56-57.1-114.9-55.1-181.1
		c-12.1,9.5-29,79.8,6.7,134.9c0,0-34.7-34.4-38.9-80.3c-10.9,24.6-6.5,82.7,35.5,117.9c0,0-36.8-9.3-53.6-60.5
		c-2.7,11.4,2.5,63.4,20.4,89.6l-0.6-0.5C382.8,307,380.2,308,377.7,309.1L377.7,309.1L377.7,309.1z M466.7,314.8
		c7.7,12.2,17.1,14.9,15.3,29.7C468,329.5,463.3,332.6,466.7,314.8z"/>
</g>
</svg>
