<?xml version="1.0" encoding="utf-8"?>
<!-- Generator: Adobe Illustrator 22.1.0, SVG Export Plug-In . SVG Version: 6.00 Build 0)  -->
<svg version="1.1" id="Слой_1" xmlns="http://www.w3.org/2000/svg" xmlns:xlink="http://www.w3.org/1999/xlink" x="0px" y="0px"
	 viewBox="0 0 1920 996" style="enable-background:new 0 0 1920 996;" xml:space="preserve">
<style type="text/css">
	.st0{fill:url(#SVGID_1_);}
	.st1{fill-rule:evenodd;clip-rule:evenodd;fill:url(#SVGID_2_);}
	.st2{fill-rule:evenodd;clip-rule:evenodd;fill:url(#SVGID_3_);}
	.st3{fill:#F3F3F8;}
	.st4{clip-path:url(#SVGID_5_);}
	.st5{fill-rule:evenodd;clip-rule:evenodd;fill:#FFFFFF;}
	.st6{fill-rule:evenodd;clip-rule:evenodd;fill:#F06410;}
</style>
<linearGradient id="SVGID_1_" gradientUnits="userSpaceOnUse" x1="611.4955" y1="1197.6997" x2="1300.412" y2="-185.4521">
	<stop  offset="0.3041" style="stop-color:#2D1C50"/>
	<stop  offset="0.4023" style="stop-color:#4F2843"/>
	<stop  offset="0.6178" style="stop-color:#A64722"/>
	<stop  offset="0.8254" style="stop-color:#FF6600"/>
</linearGradient>
<path class="st0" d="M1920,996c0,0-80-78-236.9-80c-106.9-1.4-320.6,81.4-427.5,80C960,992,696,714,424.6,706C154,698,0,814,0,814V0
	h1920V996z"/>
<linearGradient id="SVGID_2_" gradientUnits="userSpaceOnUse" x1="900.5331" y1="833.6727" x2="1330.8341" y2="250.6414">
	<stop  offset="0.1124" style="stop-color:#1A1C50"/>
	<stop  offset="0.4286" style="stop-color:#3C2644"/>
	<stop  offset="1" style="stop-color:#833B2B"/>
</linearGradient>
<path class="st1" d="M1423.7,575.6c-96.8-94.6-193.2-137.1-268.8-265.3c-53.8-91.3-84.2-203.6-82.4-310.3H960.1
	c-15.6,196.9,78.7,422.9,178.6,505.5c-99.9-11.1-266.9-244-230.8-505.5h-16.5c-184.1,373.8,69.2,674,356.3,725.6
	c-208.5,27.6-451.5-183.2-445.5-369.2c-34.4,478,270.5,634.6,584.9,574.4c-205.4-6.9-263.2-123.4-263.2-123.4
	c157.4,73.1,292,6.8,292,6.8c-22.5-123-88.6-213.4-203.2-298.6c119.1,44.2,374.2,221.5,207.4,406.6
	C1578.9,868.3,1541.5,690.7,1423.7,575.6z"/>
<linearGradient id="SVGID_3_" gradientUnits="userSpaceOnUse" x1="1131.5963" y1="963.767" x2="1699.1061" y2="194.8263">
	<stop  offset="0.1124" style="stop-color:#1A1C50"/>
	<stop  offset="0.4286" style="stop-color:#3C2644"/>
	<stop  offset="1" style="stop-color:#833B2B"/>
</linearGradient>
<path class="st2" d="M1658.6,193.3c-36.2-61.9-66.8-125.7-84.5-193.3h-41.4c3.9,35.8,14.9,74.1,37.6,109.1c0,0-45.1-44.8-63.7-109.1
	h-15.8c-4.4,52.1,13.7,127.6,73.4,177.7c0,0-67.1-17-97.8-110.4c-4.9,20.8,4.6,115.7,37.3,163.5l-1.1-0.9c-4.8,1.6-9.5,3.4-14.1,5.3
	l0,0c-126.3,45-169.7,227.8-75.2,284.8c-64.3-105.1,23.9-238.1,146.4-241.7c-55.4,17.3-92.6,65-106.7,119.4
	c-44.2,170.3,225.5,218.3,87.6,460.4c204-145.6,37.5-274.5-2.5-397l0,0l0-0.1c-0.4-1.4-0.8-2.8-1.1-4.1v0.7
	c-17.4-57.1,16.2-97.5,73.7-95.8c40.5,1.2,80.3,29.9,97,71.5C1746.6,349.6,1704.2,271.3,1658.6,193.3z M1679,300
	c-25.7-27.5-34.2-21.8-28-54.2C1665,268,1682.1,273,1679,300z"/>
</svg>
