<?xml version="1.0" encoding="utf-8"?>
<!-- Generator: Adobe Illustrator 22.1.0, SVG Export Plug-In . SVG Version: 6.00 Build 0)  -->
<svg version="1.1" id="Слой_1" xmlns="http://www.w3.org/2000/svg" xmlns:xlink="http://www.w3.org/1999/xlink" x="0px" y="0px"
	 viewBox="0 0 1920 1356" style="enable-background:new 0 0 1920 1356;" xml:space="preserve">
<style type="text/css">
	.st0{fill:url(#SVGID_1_);}
	.st1{fill-rule:evenodd;clip-rule:evenodd;fill:url(#SVGID_2_);}
	.st2{fill-rule:evenodd;clip-rule:evenodd;fill:url(#SVGID_3_);}
	.st3{fill:#F3F3F8;}
	.st4{clip-path:url(#SVGID_5_);}
	.st5{fill-rule:evenodd;clip-rule:evenodd;fill:#FFFFFF;}
	.st6{fill-rule:evenodd;clip-rule:evenodd;fill:#F06410;}
</style>
<path class="st3" d="M1920,1176c0,0-123.1-65.1-272-71c-178-7-332,151-535,168c-134.1,11.2-316-124-534-125
	c-269.1-1.2-579,208-579,208V0h1920V1176z"/>
<g>
	<defs>
		<path id="SVGID_4_" d="M1920,1176c0,0-123.1-65.1-272-71c-178-7-332,151-535,168c-134.1,11.2-316-124-534-125
			c-269.1-1.2-579,208-579,208V0h1920V1176z"/>
	</defs>
	<clipPath id="SVGID_1_">
		<use xlink:href="#SVGID_4_"  style="overflow:visible;"/>
	</clipPath>
	<g style="clip-path:url(#SVGID_1_);">
		<path class="st5" d="M998.4-501C668.2-347.8,667.7,112.5,844.8,413c108.1,183.4,246,244.1,384.4,379.4
			c168.4,164.7,222,418.7-5.2,495.7c238.6-264.8-126.3-518.3-296.7-581.6c164,121.9,258.5,251.2,290.7,427.2
			c0,0-192.5,94.8-417.7-9.7c0,0,82.7,166.6,376.5,176.5c-449.8,86.1-885.9-137.8-836.7-821.6c-8.7,266.1,339,567.6,637.2,528.1
			C549.9,930.2,174.5,467.6,503.7-97.7c-92.6,400.3,166.4,773,317.8,789.9C564.2,479.4,332.9-398.3,998.4-501z"/>
		<path class="st5" d="M1322.2,305.6c-180.7,64.4-242.8,325.9-107.5,407.4c-92-150.4,34.1-340.6,209.4-345.8
			c-79.3,24.7-132.5,93-152.7,170.7c-63.3,243.6,322.6,312.2,125.2,658.6c291.8-208.3,53.6-392.7-3.5-567.8l0,0l0-0.1
			c-0.6-2-1.1-3.9-1.6-5.9v0.9c-24.9-81.6,23.1-139.5,105.4-137c57.9,1.8,114.8,42.7,138.8,102.2c55.5-119.7-5.1-231.7-70.3-343.2
			C1479.9,99.5,1416.2-54.2,1421.5-227c-31.7,24.7-75.7,208.2,17.6,352.2c0,0-90.4-89.8-101.4-209.6
			c-28.3,64.1-16.9,215.9,92.7,307.7c0,0-96-24.3-139.9-157.9c-7,29.8,6.5,165.5,53.4,233.9l-1.5-1.3
			C1335.3,300.2,1328.6,302.8,1322.2,305.6L1322.2,305.6L1322.2,305.6z M1554.4,320.6c20.1,31.8,44.5,38.9,40,77.6
			C1557.7,358.9,1545.4,367.1,1554.4,320.6z"/>
	</g>
</g>
</svg>
