<?xml version="1.0" encoding="utf-8"?>
<!-- Generator: Adobe Illustrator 22.1.0, SVG Export Plug-In . SVG Version: 6.00 Build 0)  -->
<svg version="1.1" id="Layer_1" xmlns="http://www.w3.org/2000/svg" xmlns:xlink="http://www.w3.org/1999/xlink" x="0px" y="0px"
	 viewBox="0 0 253.7 72.6" style="enable-background:new 0 0 253.7 72.6;" xml:space="preserve">
<style type="text/css">
	.st0{fill-rule:evenodd;clip-rule:evenodd;fill:#1D215E;}
	.st1{fill-rule:evenodd;clip-rule:evenodd;fill:#E76E25;}
</style>
<g>
	<g>
		<polygon class="st0" points="241.8,32.4 247.9,26.2 253.4,26.2 252,27.6 251.9,27.5 245.2,34.2 244.4,35 		"/>
		<polygon class="st0" points="248.5,46.4 241.8,39.9 244.3,37.4 250,42.9 251.4,44.3 251.4,44.3 253.7,46.4 		"/>
		<path class="st1" d="M220.6,46.4V26.2h4v20.2H220.6L220.6,46.4z M212.3,46.4l-14.3-14.9v14.9h-3.8V26.2h4.3l13.9,14.6V26.2h3.8
			v20.2H212.3L212.3,46.4z M185.9,46.4V26.2h4v20.2H185.9L185.9,46.4z M167.1,38.4v8.1h-4V26.2h19v4h-15v4.6h14.7v3.5H167.1
			L167.1,38.4z M144.5,38.4v8.1h-4V26.2h19v4h-15v4.6h14.7v3.5H144.5L144.5,38.4z M133.1,46.4l-1.3-2.4l-2.9-5.5h0.1l-4.6-8.4
			l-1.9,3.4l0,0l0,0l-2.7,5h0.1l-2.9,5.5l-1.3,2.4h-4.5l11.1-20.2h4.1l11.1,20.2H133.1L133.1,46.4z M103.9,46.4l-7-6.6h-6.4v6.6h-4
			V26.2h16.5c1.1,0,2,0.1,2.7,0.3c0.7,0.2,1.3,0.6,1.8,1.1c0.5,0.5,0.8,1.1,1,1.9c0.2,0.8,0.3,1.8,0.3,2.9v1.2c0,1.2-0.1,2.2-0.4,3
			c-0.2,0.8-0.6,1.4-1.2,1.9c-0.5,0.5-1.3,0.8-2.1,0.9c-0.9,0.2-1.9,0.3-3.2,0.3l7.5,6.7H103.9L103.9,46.4z M72,46.4V30.2h-7.4v-4
			h18.7v4H76v16.2H72L72,46.4z M232.8,46.4h-5.3L238,36l-10.3-9.8h5.5l1.4,1.4l0,0c2.9,2.9,5.7,5.7,8.6,8.6
			C239.7,39.6,236.3,42.9,232.8,46.4L232.8,46.4z M104.9,33.1c0-1-0.1-1.7-0.3-2.2c-0.2-0.5-0.8-0.7-1.6-0.7H90.6v6.3H103
			c0.7,0,1.2-0.2,1.5-0.5c0.3-0.4,0.5-1,0.5-1.9V33.1z"/>
	</g>
	<g>
		<path class="st1" d="M26.4,0c-13.2,6.1-13.2,24.5-6.1,36.5c4.3,7.3,9.8,9.7,15.4,15.2c6.7,6.6,8.9,16.7-0.2,19.8
			c9.5-10.6-5-20.7-11.9-23.2c6.5,4.9,10.3,10,11.6,17.1c0,0-7.7,3.8-16.7-0.4c0,0,3.3,6.7,15,7c-18,3.4-35.4-5.5-33.4-32.8
			c-0.3,10.6,13.5,22.7,25.4,21.1C8.5,57.2-6.5,38.7,6.7,16.1C3,32.1,13.3,47,19.4,47.7C9.1,39.2-0.1,4.1,26.4,0z"/>
		<path class="st0" d="M39.4,32.2c-7.2,2.6-9.7,13-4.3,16.3c-3.7-6,1.4-13.6,8.4-13.8c-3.2,1-5.3,3.7-6.1,6.8
			c-2.5,9.7,12.9,12.5,5,26.3c11.7-8.3,2.1-15.7-0.1-22.7l0,0l0,0c0-0.1,0-0.2-0.1-0.2v0c-1-3.3,0.9-5.6,4.2-5.5
			c2.3,0.1,4.6,1.7,5.5,4.1c2.2-4.8-0.2-9.3-2.8-13.7c-3.4-5.8-6-12-5.7-18.9c-1.3,1-3,8.3,0.7,14.1c0,0-3.6-3.6-4-8.4
			c-1.1,2.6-0.7,8.6,3.7,12.3c0,0-3.8-1-5.6-6.3c-0.3,1.2,0.3,6.6,2.1,9.3l-0.1-0.1C39.9,32,39.6,32.1,39.4,32.2L39.4,32.2
			L39.4,32.2z M48.6,32.8c0.8,1.3,1.8,1.6,1.6,3.1C48.8,34.3,48.3,34.7,48.6,32.8z"/>
	</g>
</g>
</svg>
